<svg xmlns="http://www.w3.org/2000/svg" viewBox="0 0 31 31"><path d="M1 1h7v7h-7zM13 1h4v1h1v-1h1v2h-2v2h1v-1h1v1h2v-1h1v5h-1v-3h-1v2h-1v-2h-3v-1h-1v-1h1v-1h-1v1h-1v-1h-1zM20 1h1v1h-1zM23 1h7v7h-7zM2 2v5h5v-5zM10 2h1v2h1v2h-2v2h1v-1h1v2h2v1h-1v1h1v-1h3v1h1v1h-1v2h1v-1h1v-1h2v1h-1v1h-1v1h-3v-1h-1v-1h1v-1h-1v1h-2v-1h-2v1h-1v1h-1v1h-1v-1h-2v-1h2v-1h-1v-1h2v1h1v-1h-1v-1h1v-1h-1v-6h1zM21 2h1v1h-1zM24 2v5h5v-5zM3 3h3v3h-3zM12 3h1v1h-1zM20 3h1v1h-1zM25 3h3v3h-3zM13 4h1v1h-1zM13 7h1v1h-1zM15 7h1v2h-1zM17 7h1v2h1v1h-2zM1 9h1v1h1v1h-2zM3 9h5v1h-2v2h-3v-1h1v-1h-1zM23 9h5v1h-2v1h1v2h1v1h-2v-1h-1v-3h-1v3h-1v-2h-1v1h-1v-1h-2v-1h4zM11 10v1h1v-1zM28 10h2v1h-2zM28 12h2v1h-2zM1 13h1v1h-1zM11 13h2v1h-2zM24 13h1v1h1v2h1v1h1v1h-2v-1h-1v-2h-2v-1h1zM5 14h1v1h-1zM13 14h1v3h-1zM20 14h2v1h-2zM29 14h1v1h-1zM1 15h2v1h-1v1h-1zM4 15h1v2h1v3h-1v1h1v1h-2v-1h-1v-2h-1v3h-1v-4h3v-1h-1v-1h1zM6 15h2v1h-1v1h-1zM9 15h2v2h-1v-1h-1zM22 15h1v1h1v1h-2zM8 16h1v1h-1zM15 16h1v1h-1zM17 16h1v1h2v1h-3zM20 16h1v1h-1zM28 16h2v3h-2v-1h1v-1h-1zM7 17h1v1h-1zM9 17h1v1h1v2h-2v-1h-1v-1h1zM11 17h1v1h-1zM21 17h1v1h2v-1h1v1h1v3h4v2h-2v1h-1v-2h-1v4h-4v2h1v1h-2v-1h-1v-1h-1v1h1v1h-2v-1h-1v2h-2v-1h-1v-1h1v-2h2v1h1v-1h1v-2h1v-2h1v-3h-1v-1h1zM12 18h1v1h-1zM14 18h3v1h3v3h-2v-1h1v-1h-2v2h1v1h-2v-1h-1v-1h1v-1h-1v1h-1v1h-1v-3h1zM7 19h1v1h-1zM22 19v2h3v-1h-1v-1zM6 20h1v1h-1zM8 20h1v1h-1zM11 20h1v1h-1zM7 21h1v1h-1zM9 21h2v1h-1v1h-1zM11 22h2v1h-2zM22 22v3h3v-3zM1 23h7v7h-7zM10 23h1v1h3v1h-3v2h1v-1h2v2h-1v1h-2v-1h-2v-4h1zM18 23h1v1h-1zM23 23h1v1h-1zM2 24v5h5v-5zM15 24h1v1h-1zM17 24h1v2h-1zM28 24h1v1h-1zM3 25h3v3h-3zM20 25v1h1v-1zM27 25h1v2h1v2h-1v-1h-3v2h-2v-1h1v-1h-1v-1h3v-1h1zM29 25h1v1h-1zM9 29h2v1h-2zM13 29h1v1h-1zM20 29h1v1h-1zM27 29h1v1h-1z"/></svg>