<svg xmlns="http://www.w3.org/2000/svg" viewBox="0 0 43 43"><path d="M1 1h7v7h-7zM11 1h3v1h1v1h-2v-1h-1v1h-2v-1h1zM17 1h1v3h-2v-1h1zM19 1h2v1h-1v1h-1zM23 1h2v1h-1v1h-1zM27 1h1v1h-1zM29 1h1v1h1v-1h2v1h-1v2h1v-1h1v5h-1v-2h-1v-1h-2v3h-1v-1h-1v-1h1v-1h-1v-1h-1v-1h1v-1h1zM35 1h7v7h-7zM2 2v5h5v-5zM25 2h1v3h2v1h-4v-1h1v-1h-1v-1h1zM36 2v5h5v-5zM3 3h3v3h-3zM9 3h1v1h2v1h-2v1h2v-1h2v1h1v1h-1v1h-1v-1h-1v1h1v2h-1v1h-1v-2h-2zM21 3h1v1h-1zM29 3v1h2v-1zM37 3h3v3h-3zM19 4h2v1h1v-1h2v1h-1v2h-1v1h1v1h-1v2h2v1h-1v1h-2v-2h-2v-1h1v-1h1v-3h-1v-1h-1zM15 5h1v1h-1zM17 5h1v3h-1zM10 7v1h1v-1zM15 7h1v1h-1zM19 7h1v2h-1zM23 7h1v1h-1zM25 7h1v1h-1zM27 7h1v1h1v1h-1v2h1v-2h1v3h-1v2h1v1h-2v1h-1v-2h-1v-1h2v-1h-1v-2h-1v-1h1zM31 7h1v1h-1zM14 8h1v1h1v-1h1v1h2v1h-1v1h-1v1h1v1h2v2h1v1h1v-1h1v1h1v1h-3v2h-1v-2h-1v-1h-2v1h2v3h1v1h-2v-3h-2v-1h-2v-1h-1v-1h-1v-1h-2v-1h1v-1h1v-1h1v1h3v-1h-1v-1h-1zM1 9h1v1h-1zM3 9h5v1h-1v1h1v-1h2v1h-1v1h-2v1h-1v-1h-1v-1h1v-1h-3zM35 9h5v1h2v1h-2v1h-2v-1h1v-1h-1v1h-1v2h1v2h-1v1h-2v1h-1v-1h-1v-1h3v-4h-2v1h1v1h-2v-2h-2v-1h4zM13 10h1v1h-1zM24 10h2v1h-2zM2 11h1v1h1v1h-3v-1h1zM10 11h1v1h-1zM24 12h2v1h-2zM40 12h1v1h-1zM5 13h1v1h-1zM7 13h1v1h-1zM14 13v2h5v-1h-4v-1zM30 13h1v1h-1zM32 13h1v2h-1v2h-1v-1h-1v-1h1v-1h1zM39 13h1v1h-1zM3 14h1v2h1v1h-1v1h2v1h2v-1h-2v-1h2v-1h-3v-1h4v1h2v-1h1v2h-3v3h1v-2h1v2h2v1h-5v-1h-1v1h1v1h-1v1h1v1h-2v-2h-1v-3h-1v2h-1v-2h-1v1h-1v-3h1v1h1zM21 14h1v1h-1zM25 14h1v1h-1zM40 14h2v1h-2zM38 15h2v1h-2zM25 16h1v1h2v1h-1v1h2v-1h1v-1h1v1h1v-1h1v2h-1v1h1v1h-1v1h-1v1h-2v-1h1v-1h1v-1h-1v1h-1v1h-2v-1h1v-1h-1v1h-1v-3h-1zM29 16h1v1h-1zM40 16h2v1h-1v1h-1v1h-1v-2h1zM13 17h1v1h-1zM36 17h1v1h1v1h1v3h-1v-1h-1v-1h-2v-1h1zM14 18h1v1h-1zM22 18h1v2h2v2h1v1h1v1h-1v1h-1v1h1v-1h1v2h-1v2h1v1h-4v-1h1v-1h1v-1h-1v-3h1v-1h-1v1h-1v1h-1v-1h-1v-1h-1v1h-1v-2h3v1h1v-1h1v-1h-1v1h-1v-2h-1v-1h1zM24 18h1v1h-1zM41 18h1v1h-1zM13 19h1v1h-1zM15 20h1v2h1v1h-1v1h1v1h-1v1h1v-1h2v1h-1v1h-2v1h-1v-2h-2v-1h2v-3h-2v-1h2zM40 20h1v1h-1zM1 21h1v2h-1zM17 21h1v1h-1zM33 21h2v1h3v1h1v2h1v1h-2v-1h-4v-1h1v-1h-3v-1h1zM41 21h1v2h-1zM4 22h1v1h-1zM9 22h1v2h-1zM2 23h1v1h2v2h2v1h1v1h-1v1h-1v-2h-1v1h-1v1h2v2h2v1h-1v1h1v1h-4v-1h2v-1h-1v-2h-1v2h-1v-2h-1v4h-1v-6h1v1h1v-2h1v-1h-2v-1h-1v-1h1zM12 23h1v2h-1zM28 23h1v1h1v1h-1v1h-1v-1h-1v-1h1zM31 23h1v1h-1zM32 24h1v1h-1zM40 24h1v1h-1zM7 25h2v1h-2zM30 25h1v1h-1zM41 25h1v2h-2v-1h1zM9 26h2v2h-1v-1h-1zM19 26h4v1h-3v3h-2v-1h1v-1h-1v-1h1zM29 26h1v1h-1zM31 26h7v2h-1v-1h-1v2h-1v-2h-1v1h-1v-1h-1v1h-1zM28 27h1v1h1v1h-1v2h2v-1h1v-1h2v1h2v-1h2v2h-6v1h-2v1h-2v1h-2v-1h1v-2h1v-2h-1v-1h1zM39 27h1v1h-1zM9 28h1v1h2v1h-3zM16 28h1v1h-1zM21 28h2v1h-1v1h-1zM38 28h1v1h-1zM40 28h1v2h1v1h-1v1h1v3h-2v-1h-2v2h1v1h-1v1h-5v-2h-2v-1h2v-2h1v-1h1v1h5v-1h-1v-1h1v-1h-1v-1h1zM7 29h1v1h-1zM13 29h3v1h-2v1h-2v-1h1zM30 29h1v1h-1zM8 30h1v1h-1zM16 30h2v1h-1v1h-2v-1h1zM22 30h1v1h-1zM9 31h3v1h3v1h2v2h1v3h-1v2h-1v-2h-1v-1h-1v1h-2v-1h1v-2h-1v-1h-1v-1h-1v-1h-1zM21 31h1v1h-1zM24 31h2v1h-1v2h-1zM22 32h1v1h-1zM32 32h1v1h-1zM9 33h1v1h1v1h-2zM13 33v1h1v-1zM18 33h1v1h-1zM21 33h1v1h-1zM30 33h1v1h-1zM15 34v1h1v-1zM20 34h1v1h-1zM23 34h1v2h-1zM29 34h1v1h-1zM34 34v3h3v-3zM1 35h7v7h-7zM11 35h1v2h-1zM19 35h1v1h-1zM25 35h1v1h-1zM28 35h1v1h-1zM35 35h1v1h-1zM2 36v5h5v-5zM9 36h1v3h1v2h-1v-1h-1zM20 36h1v2h1v-1h2v1h-1v1h-3v-1h-1v-1h1zM27 36h1v1h-1zM3 37h3v3h-3zM28 37h3v3h-1v-1h-1v-1h-1zM39 37h3v1h-3zM11 38h1v1h-1zM14 38h1v2h1v2h-1v-1h-3v-1h2zM18 38h1v1h1v1h3v1h1v1h-2v-1h-1v1h-1v-1h-1v-1h-1zM24 38h2v1h1v1h-1v1h-2v-1h1v-1h-1zM27 38h1v1h-1zM32 38h1v2h-1zM38 38h1v1h-1zM28 39h1v1h-1zM34 39h4v1h1v1h-2v1h-1v-1h-1v-1h-1zM29 40h1v1h-1zM31 40h1v1h-1zM33 40h1v1h-1zM40 40h1v1h-1zM9 41h1v1h-1zM26 41h1v1h-1zM34 41h1v1h-1zM39 41h1v1h-1z"/></svg>