<svg xmlns="http://www.w3.org/2000/svg" viewBox="0 0 31 31"><path d="M1 1h7v7h-7zM9 1h3v1h-1v1h-2zM14 1h3v1h-2v1h-3v-1h2zM18 1h1v1h-1zM20 1h1v1h-1zM23 1h7v7h-7zM2 2v5h5v-5zM17 2h1v2h-1zM19 2h1v2h-1zM24 2v5h5v-5zM3 3h3v3h-3zM11 3h1v1h1v1h1v1h-1v1h-1v1h-1v-1h-1v-2h-1v-1h2zM25 3h3v3h-3zM15 4h2v1h-1v1h-1zM18 4h1v1h-1zM21 4h1v1h-1zM11 5v1h1v-1zM17 5h1v3h1v-1h1v2h1v1h2v-1h1v2h1v1h-2v1h-1v-2h-2v1h-2v1h-1v-2h2v-1h-1v-1h-1v2h-2v1h-1v1h-1v-1h-1v-1h1v-1h1v-1h1v1h1v-2h1v-1h-1v-1h1zM20 5h1v1h1v2h-1v-1h-1zM14 6h1v1h-1zM9 7h1v1h1v2h1v1h-1v1h-1v-1h-1v-1h1v-1h-1zM13 7h1v1h-1zM15 7h1v1h-1zM1 9h1v1h1v-1h2v1h1v-1h3v1h-2v1h-4v1h2v1h-1v1h-1v-1h-1v-2h-1zM26 9h1v1h-1zM28 9h2v2h-1v1h-3v-1h2zM25 10h1v1h-1zM7 11h2v1h1v2h1v-1h2v1h1v1h1v1h-2v-1h-3v1h-1v1h1v2h-1v-1h-2v-1h1v-1h-1v1h-1v-1h-1v-3h3v1h-2v1h2v-1h1v-1h-1v-1h-1zM1 13h1v1h-1zM15 13h2v1h-1v1h-1zM18 13h2v1h1v3h-1v-1h-1v-2h-1zM24 13h1v1h-1zM26 13h2v1h2v4h-2v-3h-1v-1h-1zM17 14h1v5h1v-1h1v2h-1v2h-1v1h-1v2h-3v-1h1v-1h1v-1h1v-1h1v-1h-2v2h-2v-1h-1v1h1v1h-1v2h-2v2h-1v1h-1v-2h1v-1h-1v-3h-3v-2h1v1h3v2h2v-1h-1v-1h1v-2h3v-3h1v1h1v-1h-1v-1h1zM22 14h2v3h-1v1h-1v-2h1v-1h-1zM1 15h1v1h-1zM26 15h1v4h-1v-1h-1v-2h1zM3 16h1v1h-1zM10 16h2v1h2v1h-3v-1h-1zM4 17h2v2h-2v1h1v1h-1v1h-2v-1h1v-2h-1v-1h2zM16 18v1h1v-1zM21 18h1v2h-1zM24 18h1v1h1v1h-1v1h1v3h1v1h-1v1h1v1h-2v2h-1v-3h-1v3h1v1h-6v-3h2v2h1v-2h1v-1h-1v-2h-1v2h-1v-2h-1v-1h2v-2h2v-1h1v1h1zM1 19h1v1h-1zM7 19h1v1h-1zM27 20h2v1h-1v1h2v1h-1v1h-1v-1h-1zM22 22v3h3v-3zM1 23h7v7h-7zM23 23h1v1h-1zM2 24v5h5v-5zM29 24h1v2h-1zM3 25h3v3h-3zM13 25h1v2h-2v-1h1zM17 25h1v1h-1zM27 25h1v1h-1zM20 26h1v1h-1zM28 26h1v1h-1zM27 27h1v1h-1zM29 27h1v1h-1zM11 28h2v1h-2zM14 28h1v2h-2v-1h1zM16 28h1v1h-1zM28 28h1v2h-1zM9 29h1v1h-1zM25 29h1v1h-1z"/></svg>